<?xml version="1.0"?><svg viewBox="0,0,1030,410" width="1030" xmlns="http://www.w3.org/2000/svg" xmlns:x="http://www.w3.org/1999/xlink" author="Jan Bobrowski"><title>ZX Spectrum keyboard layout - torinak.com</title><filter id="f"><feOffset in="SourceAlpha" dx="1" dy="1.5"/><feComposite in="SourceAlpha" operator="out" result="l"/><feFlood flood-color="#464e55"/><feComposite in2="l" operator="in" result="l"/><feOffset in="SourceAlpha" dy="-2"/><feComposite in="SourceAlpha" operator="out"/><feGaussianBlur stdDeviation="3" result="d"/><feGaussianBlur in="SourceAlpha" stdDeviation="3"/><feMerge><feMergeNode/><feMergeNode in="SourceGraphic"/><feMergeNode in="l"/><feMergeNode in="d"/></feMerge></filter><rect width="100%" height="100%" style="fill:#0a0a0a"/><path fill="#363E46" filter="url(#f)" d="M26 94q-4 0-4-4v-40q0-4 4-4h58.5q4 0 4 4v40q0 4-4 4m36 0q-4 0-4-4v-40q0-4 4-4h58.5q4 0 4 4v40q0 4-4 4m36 0q-4 0-4-4v-40q0-4 4-4h58.5q4 0 4 4v40q0 4-4 4m36 0q-4 0-4-4v-40q0-4 4-4h58.5q4 0 4 4v40q0 4-4 4m36 0q-4 0-4-4v-40q0-4 4-4h58.5q4 0 4 4v40q0 4-4 4m36 0q-4 0-4-4v-40q0-4 4-4h58.5q4 0 4 4v40q0 4-4 4m36 0q-4 0-4-4v-40q0-4 4-4h58.5q4 0 4 4v40q0 4-4 4m36 0q-4 0-4-4v-40q0-4 4-4h58.5q4 0 4 4v40q0 4-4 4m36 0q-4 0-4-4v-40q0-4 4-4h58.5q4 0 4 4v40q0 4-4 4m36 0q-4 0-4-4v-40q0-4 4-4h58.5q4 0 4 4v40q0 4-4 4M72 188q-4 0-4-4v-40q0-4 4-4h58.5q4 0 4 4v40q0 4-4 4m36 0q-4 0-4-4v-40q0-4 4-4h58.5q4 0 4 4v40q0 4-4 4m36 0q-4 0-4-4v-40q0-4 4-4h58.5q4 0 4 4v40q0 4-4 4m36 0q-4 0-4-4v-40q0-4 4-4h58.5q4 0 4 4v40q0 4-4 4m36 0q-4 0-4-4v-40q0-4 4-4h58.5q4 0 4 4v40q0 4-4 4m36 0q-4 0-4-4v-40q0-4 4-4h58.5q4 0 4 4v40q0 4-4 4m36 0q-4 0-4-4v-40q0-4 4-4h58.5q4 0 4 4v40q0 4-4 4m36 0q-4 0-4-4v-40q0-4 4-4h58.5q4 0 4 4v40q0 4-4 4m36 0q-4 0-4-4v-40q0-4 4-4h58.5q4 0 4 4v40q0 4-4 4m36 0q-4 0-4-4v-40q0-4 4-4h58.5q4 0 4 4v40q0 4-4 4M95 282q-4 0-4-4v-40q0-4 4-4h58.5q4 0 4 4v40q0 4-4 4m36 0q-4 0-4-4v-40q0-4 4-4h58.5q4 0 4 4v40q0 4-4 4m36 0q-4 0-4-4v-40q0-4 4-4h58.5q4 0 4 4v40q0 4-4 4m36 0q-4 0-4-4v-40q0-4 4-4h58.5q4 0 4 4v40q0 4-4 4m36 0q-4 0-4-4v-40q0-4 4-4h58.5q4 0 4 4v40q0 4-4 4m36 0q-4 0-4-4v-40q0-4 4-4h58.5q4 0 4 4v40q0 4-4 4m36 0q-4 0-4-4v-40q0-4 4-4h58.5q4 0 4 4v40q0 4-4 4m36 0q-4 0-4-4v-40q0-4 4-4h58.5q4 0 4 4v40q0 4-4 4m36 0q-4 0-4-4v-40q0-4 4-4h58.5q4 0 4 4v40q0 4-4 4m36 0q-4 0-4-4v-40q0-4 4-4h58.5q4 0 4 4v40q0 4-4 4M26 376q-4 0-4-4v-40q0-4 4-4h83.5q4 0 4 4v40q0 4-4 4m36 0q-4 0-4-4v-40q0-4 4-4h58.5q4 0 4 4v40q0 4-4 4m36 0q-4 0-4-4v-40q0-4 4-4h58.5q4 0 4 4v40q0 4-4 4m36 0q-4 0-4-4v-40q0-4 4-4h58.5q4 0 4 4v40q0 4-4 4m36 0q-4 0-4-4v-40q0-4 4-4h58.5q4 0 4 4v40q0 4-4 4m36 0q-4 0-4-4v-40q0-4 4-4h58.5q4 0 4 4v40q0 4-4 4m36 0q-4 0-4-4v-40q0-4 4-4h58.5q4 0 4 4v40q0 4-4 4m36 0q-4 0-4-4v-40q0-4 4-4h58.5q4 0 4 4v40q0 4-4 4m36 0q-4 0-4-4v-40q0-4 4-4h58.5q4 0 4 4v40q0 4-4 4m36 0q-4 0-4-4v-40q0-4 4-4h102.5q4 0 4 4v40q0 4-4 4"/><g fill="#24a"><use x="24" y="14" height="13" x:href="#B"/><use x="33" y="14" height="13" x:href="#L"/><use x="41" y="14" height="13" x:href="#U"/><use x="50.5" y="14" height="13" x:href="#E"/></g><g fill="#8d3f6f"><use x="209" y="14" height="13" x:href="#M"/><use x="221" y="14" height="13" x:href="#A"/><use x="230" y="14" height="13" x:href="#G"/><use x="239.6" y="14" height="13" x:href="#E"/><use x="248" y="14" height="13" x:href="#N"/><use x="257.6" y="14" height="13" x:href="#T"/><use x="265.6" y="14" height="13" x:href="#A"/></g><g fill="#4990ce"><use x="402" y="14" height="13" x:href="#C"/><use x="411.6" y="14" height="13" x:href="#Y"/><use x="420" y="14" height="13" x:href="#A"/><use x="429" y="14" height="13" x:href="#N"/></g><g fill="#f3b854"><use x="496.5" y="14" height="13" x:href="#Y"/><use x="505" y="14" height="13" x:href="#E"/><use x="513.6" y="14" height="13" x:href="#L"/><use x="521" y="14" height="13" x:href="#L"/><use x="529" y="14" height="13" x:href="#O"/><use x="539" y="14" height="13" x:href="#W"/></g><g fill="#fff"><path transform="translate(29,79)scale(0.195)" d="m50 0v-90h-14c-2 14-14 18-27 18v14h23v58"/><path transform="translate(123.5,79)scale(0.195)" d="m5-55h17c0-9 4-21 14-21 16 2 17 18 7 27-7 6-16 11-23 17-11 8-17 19-17 32h65v-16h-42c11-15 32-19 40-36 8-21-7-39-29-39s-33 16-32 36"/><path transform="translate(218,79)scale(0.195)" d="m29-53v12c11 0 21 2 21 14-1 11-10 16-22 12-6-3-8-10-8-16h-18c0 14 7 26 20 30 12 4 27 3 37-5 14-12 14-37-6-42 9-3 12-10 13-19-1-16-16-24-31-24-19 0-30 13-31 31h18c0-10 5-16 14-16 7 0 12 5 12 11 0 11-11 12-19 12"/><path transform="translate(312.5,79)scale(0.195)" d="m40-67v31h-24l24-31m0 46v21h17v-21h12v-15h-12v-54h-16l-39 53v16"/><path transform="translate(407,79)scale(0.195)" d="m64-75v-15h-50l-9 50h17c10-14 29-8 29 10 0 19-28 24-31 3h-18c1 20 16 29 34 29 24-1 38-23 31-44-8-22-31-23-44-12l4-21h37"/><path transform="translate(501.5,79)scale(0.195)" d="m37-46c9 0 13 8 13 16 0 9-5 17-13 17-10 0-15-9-15-17 0-9 6-16 15-16m13-21h17c-2-15-14-24-29-24-19 0-29 13-33 30-6 27 1 62 32 63 19-1 31-15 31-33 1-28-33-39-47-19h-1c1-31 25-36 30-17"/><path transform="translate(596,79)scale(0.195)" d="m66-74v-16h-61v17h42c-17 22-27 47-30 73h20c1-26 9-57 29-74"/><path transform="translate(690.5,79)scale(0.195)" d="m22-65c0-8 7-13 14-13s13 5 13 13-6 11-13 11c-8 0-14-4-14-11m-3 16v1c-21 6-22 32-7 43 14 9 34 9 47 0 16-13 14-39-6-43v-1c15-5 16-23 6-34-12-11-31-11-44-2-13 10-13 32 4 36m17 8c11 0 18 9 14 20-5 12-23 12-29 0-4-11 3-20 15-20"/><path transform="translate(785,79)scale(0.195)" d="m35-43c-10 0-14-9-14-17s5-16 14-16 14 8 14 16c0 9-6 17-14 17m-13 20h-18c2 11 9 20 19 23 15 4 29 0 37-13 11-18 11-47 1-64-9-17-36-19-50-5-10 12-12 31-1 43s31 13 40 0h1c-1 9-3 18-9 24-9 7-18 2-20-8"/><path transform="translate(879.5,79)scale(0.195)" d="m53-65c5 14 4 38-4 48-4 4-16 5-21 1m-5-10c-4-15-4-41 6-49 4-2 14-2 18 0m-42 52c3 10 9 19 18 22 8 3 22 3 30 0 10-4 15-13 18-22 3-15 4-30 0-44-3-10-9-18-18-22-8-3-22-3-30 0-10 4-15 13-18 22-3 15-4 30 0 44"/><symbol id="Q" viewBox="0,-102,128,128" width="128" height="128" preserveAspectRatio="xMinYMin"><path d="m59-34-10 10 9 8c-6 3-15 1-20-1-10-6-13-18-13-28 0-17 7-32 25-32 18 1 25 16 25 32 0 7-2 15-6 21m16 32 9-9-11-11q12-15 12-33c-1-28-17-48-45-49-29 1-45 22-45 49-1 37 36 58 67 42"/></symbol><use x="75" y="145" height="25" x:href="#Q"/><symbol id="W" viewBox="0,-102,128,128" width="128" height="128" preserveAspectRatio="xMinYMin"><path d="m96 0 24-91h-19l-15 63-16-63h-19l-16 62-15-62h-20l25 91h20l15-62 16 62"/></symbol><use x="169.5" y="145" height="25" x:href="#W"/><symbol id="E" viewBox="0,-102,128,128" width="128" height="128" preserveAspectRatio="xMinYMin"><path d="m9-91v91h69v-17h-49v-22h44v-16h-44v-19h48v-17"/></symbol><use x="264" y="145" height="25" x:href="#E"/><symbol id="R" viewBox="0,-102,128,128" width="128" height="128" preserveAspectRatio="xMinYMin"><path d="m29-50v-26h22c9 1 14 4 14 13-1 10-6 13-14 13m-42-41v91h20v-36h20c11 1 14 5 15 14 2 8 0 15 3 22h21c-4-8-4-14-4-22-1-9-4-18-14-21 11-5 15-13 15-23-1-16-13-25-27-25h-49"/></symbol><use x="358.5" y="145" height="25" x:href="#R"/><symbol id="T" viewBox="0,-102,128,128" width="128" height="128" preserveAspectRatio="xMinYMin"><path d="m29-74v74h20v-74h28v-17h-75v17"/></symbol><use x="453" y="145" height="25" x:href="#T"/><symbol id="Y" viewBox="0,-102,128,128" width="128" height="128" preserveAspectRatio="xMinYMin"><path d="m33-36v36h20v-35l34-56h-23l-21 36-21-36h-23"/></symbol><use x="547.5" y="145" height="25" x:href="#Y"/><symbol id="U" viewBox="0,-102,128,128" width="128" height="128" preserveAspectRatio="xMinYMin"><path d="m86-35v-56h-20v56c0 15-6 20-19 20s-18-7-18-20v-56h-21v56c0 13 4 22 11 28 15 12 43 12 57 0 7-6 10-15 10-28"/></symbol><use x="642" y="145" height="25" x:href="#U"/><symbol id="I" viewBox="0,-102,128,128" width="128" height="128" preserveAspectRatio="xMinYMin"><path d="m9-91v91h20v-91"/></symbol><use x="736.5" y="145" height="25" x:href="#I"/><symbol id="O" viewBox="0,-102,128,128" width="128" height="128" preserveAspectRatio="xMinYMin"><path d="m50-77c18 1 25 16 25 32s-8 31-25 30c-18 0-25-15-25-31s7-31 25-31m-45 32c0 28 17 47 45 47s45-21 45-47c-1-28-17-49-45-49-29 1-45 22-45 49"/></symbol><use x="831" y="145" height="25" x:href="#O"/><symbol id="P" viewBox="0,-102,128,128" width="128" height="128" preserveAspectRatio="xMinYMin"><path d="m29-48v-28h16c9 0 17 3 17 14s-8 14-17 14m-36-43v91h20v-33h21c19 0 32-10 32-29-1-20-14-29-32-29"/></symbol><use x="925.5" y="145" height="25" x:href="#P"/><symbol id="A" viewBox="0,-102,128,128" width="128" height="128" preserveAspectRatio="xMinYMin"><path d="m32-35 12-34 12 34m-22-56-35 91h20l8-20h34l7 20h21l-35-91"/></symbol><use x="98" y="239" height="25" x:href="#A"/><symbol id="S" viewBox="0,-102,128,128" width="128" height="128" preserveAspectRatio="xMinYMin"><path d="m3-30c1 23 19 32 39 32 19 0 38-8 38-29 0-25-28-26-48-32-10-4-8-17 3-18 13-3 22 3 22 13h20c-1-22-18-29-37-30-17 1-34 10-34 28 0 22 24 25 40 29 23 5 18 24-4 24-10-1-19-6-19-17"/></symbol><use x="192.5" y="239" height="25" x:href="#S"/><symbol id="D" viewBox="0,-102,128,128" width="128" height="128" preserveAspectRatio="xMinYMin"><path d="m29-17v-57h14c21 0 27 12 27 30 0 15-8 27-23 27h-18m-20-74v91h39c29-1 42-20 42-46-1-27-15-45-42-45h-39"/></symbol><use x="287" y="239" height="25" x:href="#D"/><symbol id="F" viewBox="0,-102,128,128" width="128" height="128" preserveAspectRatio="xMinYMin"><path d="m9-91v91h20v-38h38v-15h-38v-21h44v-17"/></symbol><use x="381.5" y="239" height="25" x:href="#F"/><symbol id="G" viewBox="0,-102,128,128" width="128" height="128" preserveAspectRatio="xMinYMin"><path d="m75-10 2 10h13v-49h-39v15h21c-2 13-10 19-22 19-18 0-25-15-25-30 0-17 7-32 25-32 11 1 17 6 19 16h19c-2-21-19-32-38-33-29 1-45 22-45 49 0 29 20 47 45 47 10 0 19-5 25-12"/></symbol><use x="476" y="239" height="25" x:href="#G"/><symbol id="H" viewBox="0,-102,128,128" width="128" height="128" preserveAspectRatio="xMinYMin"><path d="m9-91v91h20v-39h37v39h20v-91h-20v35h-37v-35"/></symbol><use x="570.5" y="239" height="25" x:href="#H"/><path transform="translate(665,259)scale(0.195)" d="m62-29v-62h-20v61c0 8-1 15-10 15-12 0-12-10-12-19h-18c-2 30 15 35 30 36 21-1 30-11 30-31"/><symbol id="K" viewBox="0,-102,128,128" width="128" height="128" preserveAspectRatio="xMinYMin"><path d="m9-91v91h20v-29l11-12 28 41h25l-39-55 36-36h-25l-36 37v-37"/></symbol><use x="759.5" y="239" height="25" x:href="#K"/><symbol id="L" viewBox="0,-102,128,128" width="128" height="128" preserveAspectRatio="xMinYMin"><path d="m9-91v91h64v-17h-44v-74"/></symbol><use x="854" y="239" height="25" x:href="#L"/><path transform="translate(148.5,353)scale(0.195)" d="m3-16v16h77v-17h-50l49-59v-15h-72v17h45"/><symbol id="X" viewBox="0,-102,128,128" width="128" height="128" preserveAspectRatio="xMinYMin"><path d="m31-48-32 48h23l20-32 20 32h24l-32-48 30-43h-22l-19 29-18-29h-23"/></symbol><use x="243" y="333" height="25" x:href="#X"/><symbol id="C" viewBox="0,-102,128,128" width="128" height="128" preserveAspectRatio="xMinYMin"><path d="m89-61c-3-21-19-32-39-33-21 1-35 11-42 30-4 12-4 26 0 37 7 19 23 29 42 29 23-1 38-15 40-37h-19c-3 12-9 20-21 20-18 0-25-15-25-30 0-17 7-32 25-32 9 0 19 8 20 16"/></symbol><use x="337.5" y="333" height="25" x:href="#C"/><symbol id="V" viewBox="0,-102,128,128" width="128" height="128" preserveAspectRatio="xMinYMin"><path d="m51 0 31-91h-21l-21 64-20-64h-21l30 91"/></symbol><use x="432" y="333" height="25" x:href="#V"/><symbol id="B" viewBox="0,-102,128,128" width="128" height="128" preserveAspectRatio="xMinYMin"><path d="m29-54v-22h19c7 0 14 3 14 11-1 8-6 11-13 11m-40-37v91h44c17 0 32-9 32-26 0-13-6-20-16-24 8-4 12-10 12-19 0-18-14-22-29-22m-23 75v-25h22c9 1 14 5 14 13 0 9-7 12-15 12"/></symbol><use x="526.5" y="333" height="25" x:href="#B"/><symbol id="N" viewBox="0,-102,128,128" width="128" height="128" preserveAspectRatio="xMinYMin"><path d="m9-91v91h19v-61l38 61h20v-91h-19v61l-38-61"/></symbol><use x="621" y="333" height="25" x:href="#N"/><symbol id="M" viewBox="0,-102,128,128" width="128" height="128" preserveAspectRatio="xMinYMin"><path d="m9-91v91h19v-64l22 64h16l22-65v65h19v-91h-28l-20 62h-1l-21-62"/></symbol><use x="715.5" y="333" height="25" x:href="#M"/><use x="953" y="252" height="13" x:href="#E"/><use x="961" y="252" height="13" x:href="#N"/><use x="971" y="252" height="13" x:href="#T"/><use x="979" y="252" height="13" x:href="#E"/><use x="987" y="252" height="13" x:href="#R"/><use x="44.4" y="335" height="17" x:href="#C"/><use x="57" y="335" height="17" x:href="#A"/><use x="69" y="335" height="17" x:href="#P"/><use x="80" y="335" height="17" x:href="#S"/><use x="43" y="352" height="17" x:href="#S"/><use x="54" y="352" height="17" x:href="#H"/><use x="67" y="352" height="17" x:href="#I"/><use x="72" y="352" height="17" x:href="#F"/><use x="82" y="352" height="17" x:href="#T"/><use x="919" y="349" height="20" x:href="#S"/><use x="932" y="349" height="20" x:href="#P"/><use x="945" y="349" height="20" x:href="#A"/><use x="959" y="349" height="20" x:href="#C"/><use x="973.7" y="349" height="20" x:href="#E"/><use x="930" y="336" height="13" x:href="#B"/><use x="939" y="336" height="13" x:href="#R"/><use x="948.6" y="336" height="13" x:href="#E"/><use x="957" y="336" height="13" x:href="#A"/><use x="966" y="336" height="13" x:href="#K"/><use x="94" y="170" height="13" x:href="#P"/><use x="103" y="170" height="13" x:href="#L"/><use x="110.4" y="170" height="13" x:href="#O"/><use x="120.6" y="170" height="13" x:href="#T"/><use x="183" y="170" height="13" x:href="#D"/><use x="192.4" y="170" height="13" x:href="#R"/><use x="202" y="170" height="13" x:href="#A"/><use x="211" y="170" height="13" x:href="#W"/><use x="288" y="170" height="13" x:href="#R"/><use x="297" y="170" height="13" x:href="#E"/><use x="306" y="170" height="13" x:href="#M"/><use x="383.4" y="170" height="13" x:href="#R"/><use x="393" y="170" height="13" x:href="#U"/><use x="402.4" y="170" height="13" x:href="#N"/><use x="469" y="170" height="13" x:href="#R"/><use x="478" y="170" height="13" x:href="#A"/><use x="487" y="170" height="13" x:href="#N"/><use x="497" y="170" height="13" x:href="#D"/><use x="546.7" y="170" height="13" x:href="#R"/><use x="556" y="170" height="13" x:href="#E"/><use x="564.4" y="170" height="13" x:href="#T"/><use x="572.4" y="170" height="13" x:href="#U"/><use x="582" y="170" height="13" x:href="#R"/><use x="591.4" y="170" height="13" x:href="#N"/><use x="684" y="170" height="13" x:href="#I"/><use x="688" y="170" height="13" x:href="#F"/><use x="750" y="170" height="13" x:href="#I"/><use x="754" y="170" height="13" x:href="#N"/><use x="764" y="170" height="13" x:href="#P"/><use x="772.4" y="170" height="13" x:href="#U"/><use x="782" y="170" height="13" x:href="#T"/><use x="848" y="170" height="13" x:href="#P"/><use x="856.6" y="170" height="13" x:href="#O"/><use x="867" y="170" height="13" x:href="#K"/><use x="876" y="170" height="13" x:href="#E"/><use x="939.6" y="170" height="13" x:href="#P"/><use x="948" y="170" height="13" x:href="#R"/><use x="957.6" y="170" height="13" x:href="#I"/><use x="961.4" y="170" height="13" x:href="#N"/><use x="971" y="170" height="13" x:href="#T"/><use x="121" y="264" height="13" x:href="#N"/><use x="131" y="264" height="13" x:href="#E"/><use x="139" y="264" height="13" x:href="#W"/><use x="212" y="264" height="13" x:href="#S"/><use x="220.4" y="264" height="13" x:href="#A"/><use x="229.3" y="264" height="13" x:href="#V"/><use x="237.6" y="264" height="13" x:href="#E"/><use x="315" y="264" height="13" x:href="#D"/><use x="325" y="264" height="13" x:href="#I"/><use x="329" y="264" height="13" x:href="#M"/><use x="408" y="264" height="13" x:href="#F"/><use x="415.5" y="264" height="13" x:href="#O"/><use x="425.7" y="264" height="13" x:href="#R"/><use x="491.4" y="264" height="13" x:href="#G"/><use x="501" y="264" height="13" x:href="#O"/><use x="511.4" y="264" height="13" x:href="#T"/><use x="519.3" y="264" height="13" x:href="#O"/><use x="577" y="264" height="13" x:href="#G"/><use x="586.6" y="264" height="13" x:href="#O"/><use x="597" y="264" height="13" x:href="#S"/><use x="605" y="264" height="13" x:href="#U"/><use x="615" y="264" height="13" x:href="#B"/><use x="682" y="264" height="13" x:href="#L"/><use x="690" y="264" height="13" x:href="#O"/><use x="700" y="264" height="13" x:href="#A"/><use x="709" y="264" height="13" x:href="#D"/><use x="785" y="264" height="13" x:href="#L"/><use x="793" y="264" height="13" x:href="#I"/><use x="796.6" y="264" height="13" x:href="#S"/><use x="805" y="264" height="13" x:href="#T"/><use x="883.4" y="264" height="13" x:href="#L"/><use x="891" y="264" height="13" x:href="#E"/><use x="899.6" y="264" height="13" x:href="#T"/><use x="165" y="358" height="13" x:href="#C"/><use x="174.6" y="358" height="13" x:href="#O"/><use x="185" y="358" height="13" x:href="#P"/><use x="193.4" y="358" height="13" x:href="#Y"/><use x="252.4" y="358" height="13" x:href="#C"/><use x="262" y="358" height="13" x:href="#L"/><use x="270" y="358" height="13" x:href="#E"/><use x="278" y="358" height="13" x:href="#A"/><use x="287" y="358" height="13" x:href="#R"/><use x="353.6" y="358" height="13" x:href="#C"/><use x="363" y="358" height="13" x:href="#O"/><use x="373.4" y="358" height="13" x:href="#N"/><use x="383" y="358" height="13" x:href="#T"/><use x="460" y="358" height="13" x:href="#C"/><use x="469.4" y="358" height="13" x:href="#L"/><use x="477" y="358" height="13" x:href="#S"/><use x="524" y="358" height="13" x:href="#B"/><use x="533" y="358" height="13" x:href="#O"/><use x="543" y="358" height="13" x:href="#R"/><use x="552.6" y="358" height="13" x:href="#D"/><use x="562" y="358" height="13" x:href="#E"/><use x="570.7" y="358" height="13" x:href="#R"/><use x="640" y="358" height="13" x:href="#N"/><use x="649.5" y="358" height="13" x:href="#E"/><use x="658" y="358" height="13" x:href="#X"/><use x="666.6" y="358" height="13" x:href="#T"/><use x="725" y="358" height="13" x:href="#P"/><use x="733.6" y="358" height="13" x:href="#A"/><use x="742.5" y="358" height="13" x:href="#U"/><use x="752" y="358" height="13" x:href="#S"/><use x="760.6" y="358" height="13" x:href="#E"/><use x="24" y="29" height="13" x:href="#E"/><use x="32.4" y="29" height="13" x:href="#D"/><use x="42" y="29" height="13" x:href="#I"/><use x="46" y="29" height="13" x:href="#T"/><use x="114.5" y="29" height="13" x:href="#C"/><use x="124" y="29" height="13" x:href="#A"/><use x="133" y="29" height="13" x:href="#P"/><use x="142" y="29" height="13" x:href="#S"/><use x="154" y="29" height="13" x:href="#L"/><use x="161.5" y="29" height="13" x:href="#O"/><use x="171.7" y="29" height="13" x:href="#C"/><use x="181.3" y="29" height="13" x:href="#K"/><use x="209" y="29" height="13" x:href="#T"/><use x="217" y="29" height="13" x:href="#R"/><use x="226" y="29" height="13" x:href="#U"/><use x="236" y="29" height="13" x:href="#E"/><use x="248" y="29" height="13" x:href="#V"/><use x="256" y="29" height="13" x:href="#I"/><use x="260" y="29" height="13" x:href="#D"/><use x="270" y="29" height="13" x:href="#E"/><use x="278" y="29" height="13" x:href="#O"/><use x="307.5" y="29" height="13" x:href="#I"/><use x="311.4" y="29" height="13" x:href="#N"/><use x="321" y="29" height="13" x:href="#V"/><use x="329" y="29" height="13" x:href="#Ge"/><use x="336.5" y="29" height="13" x:href="#V"/><use x="345" y="29" height="13" x:href="#I"/><use x="348.6" y="29" height="13" x:href="#D"/><use x="358" y="29" height="13" x:href="#E"/><use x="367" y="29" height="13" x:href="#O"/><use x="591" y="14" height="13" x:href="#W"/><use x="603" y="14" height="13" x:href="#H"/><use x="613" y="14" height="13" x:href="#I"/><use x="617" y="14" height="13" x:href="#T"/><use x="625" y="14" height="13" x:href="#E"/><use x="778" y="29" height="13" x:href="#G"/><use x="788" y="29" height="13" x:href="#R"/><use x="797" y="29" height="13" x:href="#A"/><use x="806" y="29" height="13" x:href="#P"/><use x="815" y="29" height="13" x:href="#H"/><use x="824.4" y="29" height="13" x:href="#I"/><use x="828" y="29" height="13" x:href="#C"/><use x="838" y="29" height="13" x:href="#S"/><use x="874.5" y="29" height="13" x:href="#D"/><use x="884" y="29" height="13" x:href="#E"/><use x="892.6" y="29" height="13" x:href="#L"/><use x="900" y="29" height="13" x:href="#E"/><use x="909" y="29" height="13" x:href="#T"/><use x="916.6" y="29" height="13" x:href="#E"/><path d="M874.5 12h52.7890625v15h-52.7890625M64 55h6v6h6v6h-12M158.5 61h6v-6h6v12h-12M253 61h12v6h-12M347.5 55h12v6h-6v6h-6M442 55h6v12h-6M536.5 61h12v-6h-6v12h-6M631 61h6v6h-6M725.5 55h12v12h-12"/></g><g fill="#cd4034"><use x="808.3" y="339" height="13" x:href="#S"/><use x="817" y="339" height="13" x:href="#Y"/><use x="825.4" y="339" height="13" x:href="#M"/><use x="837" y="339" height="13" x:href="#B"/><use x="846.3" y="339" height="13" x:href="#O"/><use x="856.5" y="339" height="13" x:href="#L"/><use x="817.5" y="355" height="13" x:href="#S"/><use x="826" y="355" height="13" x:href="#H"/><use x="835.5" y="355" height="13" x:href="#I"/><use x="839.4" y="355" height="13" x:href="#F"/><use x="847" y="355" height="13" x:href="#T"/><path transform="translate(67,85)scale(0.125)" d="m8-20v20h20v-20m-1-47v-24h-19v24l5 40h9"/><path transform="translate(157.6,85)scale(0.125)" d="m28-61 12 1c1-7 8-9 13-8 9 1 10 4 11 13-11 0-20 2-27 4-11 3-17 16-12 27 6 15 30 15 40 0 3 15 16 13 23 3 15-22 12-50-6-64-19-16-50-14-65 4-17 20-21 48-3 69 12 13 31 16 48 13l-2-6c-15 1-29 0-40-12-17-18-11-45 2-60 14-16 40-16 56-3 13 11 15 28 11 44-5 14-12 18-12 4 0-22 2-37-13-46-14-8-37 3-36 17m14 21c5-4 12-5 22-5-1 10-11 23-19 20-9-2-8-12-3-15"/><symbol id="Ga" viewBox="0,-102,128,128" width="128" height="128" preserveAspectRatio="xMinYMin"><path d="m36-54h25v18h-25m-12 14v22h12v-22h25v22h12v-22h20v-14h-20v-18h20v-13h-20v-23h-12v23h-25v-23h-12v23h-20v13h20v18h-20v14"/></symbol><use x="252.4" y="72" height="16" x:href="#Ga"/><symbol id="_" viewBox="0,-102,128,128" width="128" height="128" preserveAspectRatio="xMinYMin"><path d="m18-30h-18c1 22 15 31 32 32v11h7v-11c21-2 35-14 32-34-3-16-19-21-32-24v-23c7 1 11 7 11 13h18c-1-17-13-26-29-28v-10h-7v10c-16 2-30 11-30 28 1 20 15 22 30 26v27c-9-2-14-8-14-17m21 17v-24c7 2 14 4 14 12 0 7-7 11-14 12m-7-66v21c-6-1-12-4-12-10 0-7 6-11 12-11"/></symbol><use x="348.6" y="72" height="16" x:href="#_"/><path transform="translate(440.3,85)scale(0.125)" d="m84-32c7 1 10 8 10 13 0 6-3 13-11 13s-11-7-11-13c1-6 4-12 12-13m-1 35c15 0 22-8 22-21 0-15-6-23-21-23-15 1-23 9-23 23s7 21 22 21m-7-96-53 96h11l53-96m-61 13c8 0 11 6 11 12s-4 13-11 13c-8 0-11-7-11-13s4-12 11-12m-22 12c0 14 7 22 21 23 15-1 23-9 23-23s-7-21-22-21-22 8-22 21"/><path transform="translate(536.5,85)scale(0.125)" d="m59-9 8 9h22l-18-22c5-6 7-13 8-22h-15c-1 4-2 8-4 11l-11-15c12-7 20-19 14-32-5-9-14-12-23-12s-18 4-22 12c-5 11 0 20 7 28-16 7-26 21-19 38 11 21 38 19 53 5m-25-31 16 19c-7 7-17 11-25 4-9-9 0-19 9-23m15-32c0 7-4 10-9 14-4-5-8-9-8-14 1-12 17-10 17 0"/><path transform="translate(634,85)scale(0.125)" d="m14-82-3 28h13l4-28"/><path transform="translate(728.6,85)scale(0.125)" d="m39-94h-15c-3 5-6 9-8 14s-4 10-5 15-3 10-3 16c-1 5-1 10-1 15 0 10 1 20 4 29 3 10 7 19 13 28h15c-5-9-9-19-11-29-2-9-3-19-3-30 0-10 1-20 3-29 2-10 6-20 11-29"/><path transform="translate(823,85)scale(0.125)" d="m-1 23h15c3-4 6-8 8-13s4-10 5-15 3-11 3-16c1-5 1-10 1-15q0-15-4-30c-3-9-7-19-13-28h-15q7 14 11 29 3 15 3 30c0 11-1 20-3 30-3 10-6 19-11 28"/><path transform="translate(912,85)scale(0.125)" d="m0-1v8h128v-8"/><symbol id="Gb" viewBox="0,-102,128,128" width="128" height="128" preserveAspectRatio="xMinYMin"><path d="m65-64v-20l-59 44v15l59 44v-20l-44-31"/></symbol><use x="105" y="146" height="16" x:href="#Gb"/><symbol id="Gc" viewBox="0,-102,128,128" width="128" height="128" preserveAspectRatio="xMinYMin"><path d="m71-12v-13h-65v13m65-27v-14h-65v14"/></symbol><use x="115.5" y="146" height="16" x:href="#Gc"/><use x="200" y="146" height="16" x:href="#Gb"/><symbol id="Gd" viewBox="0,-102,128,128" width="128" height="128" preserveAspectRatio="xMinYMin"><path d="m6-1v20l59-44v-15l-59-44v20l44 32"/></symbol><use x="210" y="146" height="16" x:href="#Gd"/><use x="294" y="146" height="16" x:href="#Gd"/><use x="304.5" y="146" height="16" x:href="#Gc"/><use x="394" y="146" height="16" x:href="#Gb"/><use x="488.4" y="146" height="16" x:href="#Gd"/><path transform="translate(869,159)scale(0.125)" d="m28-45v-20h-20v20m0 25v21h9c0 5-4 13-10 14v9c11-2 21-12 21-23v-21h-20"/><path transform="translate(962.3,159)scale(0.125)" d="m11-87v37h14v-37m10 0v37h13v-37"/><path transform="translate(606,253)scale(0.125)" d="m37-79-37 23v12l35-19v85h14v-85l35 19v-12l-37-23"/><path transform="translate(700.7,253)scale(0.125)" d="m6-39v14h65v-14"/><path transform="translate(795,253)scale(0.125)" d="m45-39v-26h-13v26h-26v14h26v25h13v-25h26v-14"/><use x="889.4" y="240" height="16" x:href="#Gc"/><path transform="translate(187,347)scale(0.125)" d="m28-45v-20h-20v20m0 26v20h20v-20"/><path transform="translate(279,347)scale(0.125)" d="m3-10 8 12c13-9 22-3 34-1 10 2 20 0 28-7l-8-13c-6 7-14 6-21 4s-13-2-19 2c8-7 13-16 9-27h13v-10h-17c-6-11-9-28 8-29 10 0 13 9 14 17h17c0-20-11-31-31-32-16 1-33 9-33 26 0 6 1 11 6 18h-8v10h12c7 13-2 24-12 30"/><path transform="translate(373.6,347)scale(0.125)" d="m25-20v20h20v-20m-41-42h19c0-14 11-21 21-14 7 10 1 17-6 23-10 7-12 15-12 26h18c-1-15 10-16 18-25 11-15 5-32-12-39-23-8-45 4-46 29"/><path transform="translate(467.3,347)scale(0.125)" d="m69-90-70 91h14l71-91"/><path transform="translate(562.5,347)scale(0.125)" d="m41-50v-29h-9v29l-27-15-4 8 28 14-27 17 5 7 25-17v29h9v-29l24 16 4-7-25-16 26-16-4-7"/><path transform="translate(659,347)scale(0.125)" d="m7 0h10c0 6-5 14-10 15v9c11-2 21-13 21-24v-20h-21"/><symbol id="Ge" viewBox="0,-102,128,128" width="128" height="128" preserveAspectRatio="xMinYMin"><path d="m7-21v21h22v-21"/></symbol><use x="754" y="334" height="16" x:href="#Ge"/><use x="577" y="149" height="11.5" x:href="#A"/><use x="585" y="149" height="11.5" x:href="#N"/><use x="593.5" y="149" height="11.5" x:href="#D"/><use x="679" y="149" height="11.5" x:href="#O"/><use x="688" y="149" height="11.5" x:href="#R"/><use x="776" y="149" height="11.5" x:href="#A"/><use x="784" y="149" height="11.5" x:href="#T"/><use x="121.4" y="243" height="11.5" x:href="#S"/><use x="129" y="243" height="11.5" x:href="#T"/><use x="136" y="243" height="11.5" x:href="#O"/><use x="145" y="243" height="11.5" x:href="#P"/><use x="222.5" y="243" height="11.5" x:href="#N"/><use x="231" y="243" height="11.5" x:href="#O"/><use x="240" y="243" height="11.5" x:href="#T"/><use x="312" y="243" height="11.5" x:href="#S"/><use x="319.4" y="243" height="11.5" x:href="#T"/><use x="326.4" y="243" height="11.5" x:href="#E"/><use x="334" y="243" height="11.5" x:href="#P"/><use x="420" y="243" height="11.5" x:href="#T"/><use x="427" y="243" height="11.5" x:href="#O"/><use x="499" y="243" height="11.5" x:href="#T"/><use x="506" y="243" height="11.5" x:href="#H"/><use x="514.5" y="243" height="11.5" x:href="#E"/><use x="522" y="243" height="11.5" x:href="#N"/><use x="25" y="98" height="13" x:href="#D"/><use x="34.6" y="98" height="13" x:href="#E"/><use x="43" y="98" height="13" x:href="#F"/><use x="54.5" y="98" height="13" x:href="#F"/><use x="62" y="98" height="13" x:href="#N"/><use x="119.5" y="98" height="13" x:href="#F"/><use x="127" y="98" height="13" x:href="#N"/><use x="214" y="98" height="13" x:href="#L"/><use x="222" y="98" height="13" x:href="#I"/><use x="225.6" y="98" height="13" x:href="#N"/><use x="235" y="98" height="13" x:href="#E"/><use x="308.5" y="98" height="13" x:href="#O"/><use x="318.7" y="98" height="13" x:href="#P"/><use x="327" y="98" height="13" x:href="#E"/><use x="336" y="98" height="13" x:href="#N"/><use x="349" y="98" height="13" x:href="#Ga"/><use x="403" y="98" height="13" x:href="#C"/><use x="412.6" y="98" height="13" x:href="#L"/><use x="420.4" y="98" height="13" x:href="#O"/><use x="430.5" y="98" height="13" x:href="#S"/><use x="439" y="98" height="13" x:href="#E"/><use x="451" y="98" height="13" x:href="#Ga"/><use x="497.5" y="98" height="13" x:href="#M"/><use x="509" y="98" height="13" x:href="#O"/><use x="519.4" y="98" height="13" x:href="#V"/><use x="527.7" y="98" height="13" x:href="#E"/><use x="592" y="98" height="13" x:href="#E"/><use x="600.4" y="98" height="13" x:href="#R"/><use x="610" y="98" height="13" x:href="#A"/><use x="619" y="98" height="13" x:href="#S"/><use x="627" y="98" height="13" x:href="#E"/><use x="686.5" y="98" height="13" x:href="#P"/><use x="695" y="98" height="13" x:href="#O"/><use x="705" y="98" height="13" x:href="#I"/><use x="709" y="98" height="13" x:href="#N"/><use x="719" y="98" height="13" x:href="#T"/><use x="781" y="98" height="13" x:href="#C"/><use x="790.6" y="98" height="13" x:href="#A"/><use x="799.6" y="98" height="13" x:href="#T"/><use x="875.5" y="98" height="13" x:href="#F"/><use x="883" y="98" height="13" x:href="#O"/><use x="893.4" y="98" height="13" x:href="#R"/><use x="903" y="98" height="13" x:href="#M"/><use x="914.5" y="98" height="13" x:href="#A"/><use x="923.4" y="98" height="13" x:href="#T"/><use x="71" y="192" height="13" x:href="#A"/><use x="80" y="192" height="13" x:href="#S"/><use x="88.4" y="192" height="13" x:href="#N"/><use x="165.5" y="192" height="13" x:href="#A"/><use x="174.4" y="192" height="13" x:href="#C"/><use x="184" y="192" height="13" x:href="#S"/><use x="260" y="192" height="13" x:href="#A"/><use x="269" y="192" height="13" x:href="#T"/><use x="277" y="192" height="13" x:href="#N"/><use x="354.5" y="192" height="13" x:href="#V"/><use x="363" y="192" height="13" x:href="#E"/><use x="371" y="192" height="13" x:href="#R"/><use x="380.5" y="192" height="13" x:href="#I"/><use x="384.4" y="192" height="13" x:href="#F"/><use x="392" y="192" height="13" x:href="#Y"/><use x="449" y="192" height="13" x:href="#M"/><use x="461" y="192" height="13" x:href="#E"/><use x="469" y="192" height="13" x:href="#R"/><use x="478.6" y="192" height="13" x:href="#G"/><use x="488.4" y="192" height="13" x:href="#E"/><path transform="translate(543.5,202)scale(0.102)" d="m9-94v117h33v-14h-15v-88h15v-15"/><path transform="translate(638,202)scale(0.102)" d="m34 23v-117h-34v15h16v88h-16v14"/><use x="732.5" y="192" height="13" x:href="#I"/><use x="736.4" y="192" height="13" x:href="#N"/><use x="827" y="192" height="13" x:href="#O"/><use x="837" y="192" height="13" x:href="#U"/><use x="847" y="192" height="13" x:href="#T"/><path transform="translate(921.5,202)scale(0.102)" d="m82-36h-12c-4 15-29 12-31-1-2-7-2-18 2-24 6-9 26-6 29 5h12c-3-17-25-27-42-19s-20 30-14 43c6 15 23 21 38 16 11-3 17-13 18-20m-47-48c20-9 42-3 55 13 7 10 9 34 2 46-10 18-34 25-50 20-12-4-27-16-30-26-7-22 4-46 23-53m-29 60c13 25 43 33 67 25 30-11 38-43 28-67-11-27-43-37-68-27-29 10-38 46-27 69"/><path transform="translate(94,296)scale(0.102)" d="m104-43-5-11c-3 4-18 19-23 19-9-1-35-31-45-31-8 0-26 17-29 23l5 11c2-4 19-20 24-20 10 0 36 31 46 31 7 0 23-16 27-22"/><path transform="translate(188.5,296)scale(0.102)" d="m7-98v105h14v-105"/><path transform="translate(283,296)scale(0.102)" d="m89 1-76-91h-14l75 91"/><path transform="translate(377.5,296)scale(0.102)" d="m43-79v-15h-17c-9 1-15 9-15 18v24c0 6-6 11-12 11v11c6 1 12 5 12 11v25c0 8 7 17 15 17h17v-14h-7c-6 0-7-5-7-9v-21c0-7-6-13-13-14 8-1 13-8 13-15v-20c0-5 2-9 7-9h7"/><path transform="translate(472,296)scale(0.102)" d="m0 9v14h16c9 0 16-9 16-17v-25c0-6 6-11 12-11v-11c-7 0-12-5-12-11v-24c0-9-7-17-16-18h-16v15h7c5 0 7 5 7 9v20c0 8 5 14 12 15-7 1-12 7-12 14v21c0 4-2 9-7 9h-7"/><use x="566.5" y="286" height="13" x:href="#C"/><use x="576" y="286" height="13" x:href="#I"/><use x="580" y="286" height="13" x:href="#R"/><use x="589.4" y="286" height="13" x:href="#C"/><use x="599" y="286" height="13" x:href="#L"/><use x="607" y="286" height="13" x:href="#E"/><use x="661" y="286" height="13" x:href="#V"/><use x="669" y="286" height="13" x:href="#A"/><use x="678" y="286" height="13" x:href="#L"/><use x="689.5" y="286" height="13" x:href="#_"/><use x="755.5" y="286" height="13" x:href="#S"/><use x="764" y="286" height="13" x:href="#C"/><use x="773.6" y="286" height="13" x:href="#R"/><use x="783" y="286" height="13" x:href="#E"/><use x="791.4" y="286" height="13" x:href="#E"/><use x="800" y="286" height="13" x:href="#N"/><use x="813" y="286" height="13" x:href="#_"/><use x="850" y="286" height="13" x:href="#A"/><use x="859" y="286" height="13" x:href="#T"/><use x="867" y="286" height="13" x:href="#T"/><use x="875" y="286" height="13" x:href="#R"/><use x="144.5" y="380" height="13" x:href="#B"/><use x="153.6" y="380" height="13" x:href="#E"/><use x="162" y="380" height="13" x:href="#E"/><use x="170.5" y="380" height="13" x:href="#P"/><use x="239" y="380" height="13" x:href="#I"/><use x="243" y="380" height="13" x:href="#N"/><use x="252.5" y="380" height="13" x:href="#K"/><use x="333.5" y="380" height="13" x:href="#P"/><use x="342" y="380" height="13" x:href="#A"/><use x="351" y="380" height="13" x:href="#P"/><use x="360" y="380" height="13" x:href="#E"/><use x="368" y="380" height="13" x:href="#R"/><use x="428" y="380" height="13" x:href="#F"/><use x="436" y="380" height="13" x:href="#L"/><use x="443.4" y="380" height="13" x:href="#A"/><use x="452.4" y="380" height="13" x:href="#S"/><use x="461" y="380" height="13" x:href="#H"/><use x="522.5" y="380" height="13" x:href="#B"/><use x="531.6" y="380" height="13" x:href="#R"/><use x="541" y="380" height="13" x:href="#I"/><use x="545" y="380" height="13" x:href="#G"/><use x="554.7" y="380" height="13" x:href="#H"/><use x="564.3" y="380" height="13" x:href="#T"/><use x="617" y="380" height="13" x:href="#O"/><use x="627" y="380" height="13" x:href="#V"/><use x="635.4" y="380" height="13" x:href="#E"/><use x="644" y="380" height="13" x:href="#R"/><use x="711.5" y="380" height="13" x:href="#I"/><use x="715.4" y="380" height="13" x:href="#N"/><use x="725" y="380" height="13" x:href="#V"/><use x="733" y="380" height="13" x:href="#E"/><use x="741.7" y="380" height="13" x:href="#R"/><use x="751" y="380" height="13" x:href="#S"/><use x="759.4" y="380" height="13" x:href="#E"/><use x="114.5" y="14" height="13" x:href="#R"/><use x="124" y="14" height="13" x:href="#E"/><use x="132" y="14" height="13" x:href="#D"/></g><g fill="#594"><use x="71" y="123" height="13" x:href="#S"/><use x="79.4" y="123" height="13" x:href="#I"/><use x="83" y="123" height="13" x:href="#N"/><use x="165.5" y="123" height="13" x:href="#C"/><use x="175" y="123" height="13" x:href="#O"/><use x="185.3" y="123" height="13" x:href="#S"/><use x="260" y="123" height="13" x:href="#T"/><use x="268" y="123" height="13" x:href="#A"/><use x="277" y="123" height="13" x:href="#N"/><use x="354.5" y="123" height="13" x:href="#I"/><use x="358.4" y="123" height="13" x:href="#N"/><use x="368" y="123" height="13" x:href="#T"/><use x="449" y="123" height="13" x:href="#R"/><use x="458.3" y="123" height="13" x:href="#N"/><use x="468" y="123" height="13" x:href="#D"/><use x="543.5" y="123" height="13" x:href="#S"/><use x="552" y="123" height="13" x:href="#T"/><use x="560" y="123" height="13" x:href="#R"/><use x="573" y="123" height="13" x:href="#_"/><use x="638" y="123" height="13" x:href="#C"/><use x="647.6" y="123" height="13" x:href="#H"/><use x="657" y="123" height="13" x:href="#R"/><use x="670" y="123" height="13" x:href="#_"/><use x="732.5" y="123" height="13" x:href="#C"/><use x="742" y="123" height="13" x:href="#O"/><use x="752.3" y="123" height="13" x:href="#D"/><use x="762" y="123" height="13" x:href="#E"/><use x="827" y="123" height="13" x:href="#P"/><use x="835.6" y="123" height="13" x:href="#E"/><use x="844" y="123" height="13" x:href="#E"/><use x="852.5" y="123" height="13" x:href="#K"/><use x="921.5" y="123" height="13" x:href="#T"/><use x="929.4" y="123" height="13" x:href="#A"/><use x="938.4" y="123" height="13" x:href="#B"/><use x="94" y="217" height="13" x:href="#R"/><use x="103.3" y="217" height="13" x:href="#E"/><use x="112" y="217" height="13" x:href="#A"/><use x="121" y="217" height="13" x:href="#D"/><use x="188.5" y="217" height="13" x:href="#R"/><use x="198" y="217" height="13" x:href="#E"/><use x="206" y="217" height="13" x:href="#S"/><use x="215" y="217" height="13" x:href="#T"/><use x="222.6" y="217" height="13" x:href="#O"/><use x="233" y="217" height="13" x:href="#R"/><use x="242" y="217" height="13" x:href="#E"/><use x="283" y="217" height="13" x:href="#D"/><use x="292.6" y="217" height="13" x:href="#A"/><use x="301.6" y="217" height="13" x:href="#T"/><use x="309.5" y="217" height="13" x:href="#A"/><use x="377.5" y="217" height="13" x:href="#S"/><use x="386" y="217" height="13" x:href="#G"/><use x="396" y="217" height="13" x:href="#N"/><use x="472" y="217" height="13" x:href="#A"/><use x="481" y="217" height="13" x:href="#B"/><use x="490" y="217" height="13" x:href="#S"/><use x="566.5" y="217" height="13" x:href="#S"/><use x="575" y="217" height="13" x:href="#Q"/><use x="585" y="217" height="13" x:href="#R"/><use x="661" y="217" height="13" x:href="#V"/><use x="669" y="217" height="13" x:href="#A"/><use x="678" y="217" height="13" x:href="#L"/><use x="755.5" y="217" height="13" x:href="#L"/><use x="763" y="217" height="13" x:href="#E"/><use x="771.6" y="217" height="13" x:href="#N"/><use x="850" y="217" height="13" x:href="#U"/><use x="859.6" y="217" height="13" x:href="#S"/><use x="868" y="217" height="13" x:href="#R"/><use x="144.5" y="311" height="13" x:href="#L"/><use x="152" y="311" height="13" x:href="#N"/><use x="239" y="311" height="13" x:href="#E"/><use x="247.4" y="311" height="13" x:href="#X"/><use x="256" y="311" height="13" x:href="#P"/><use x="333.5" y="311" height="13" x:href="#L"/><use x="345" y="311" height="13" x:href="#P"/><use x="353.5" y="311" height="13" x:href="#R"/><use x="363" y="311" height="13" x:href="#I"/><use x="367" y="311" height="13" x:href="#N"/><use x="376.4" y="311" height="13" x:href="#T"/><use x="428" y="311" height="13" x:href="#L"/><use x="439.4" y="311" height="13" x:href="#L"/><use x="447" y="311" height="13" x:href="#I"/><use x="451" y="311" height="13" x:href="#S"/><use x="459.4" y="311" height="13" x:href="#T"/><use x="522.5" y="311" height="13" x:href="#B"/><use x="531.6" y="311" height="13" x:href="#I"/><use x="535.5" y="311" height="13" x:href="#N"/><use x="617" y="311" height="13" x:href="#I"/><use x="621" y="311" height="13" x:href="#N"/><use x="634" y="311" height="13" x:href="#K"/><use x="643.5" y="311" height="13" x:href="#E"/><use x="652" y="311" height="13" x:href="#Y"/><use x="664" y="311" height="13" x:href="#_"/><use x="711.5" y="311" height="13" x:href="#P"/><use x="720" y="311" height="13" x:href="#I"/><use x="307.5" y="14" height="13" x:href="#G"/><use x="317.4" y="14" height="13" x:href="#R"/><use x="326.7" y="14" height="13" x:href="#E"/><use x="335" y="14" height="13" x:href="#E"/><use x="343.6" y="14" height="13" x:href="#N"/></g><g fill="#000"><use x="878.5" y="14" height="13" x:href="#B"/><use x="887.6" y="14" height="13" x:href="#L"/><use x="895.4" y="14" height="13" x:href="#A"/><use x="904" y="14" height="13" x:href="#C"/><use x="914" y="14" height="13" x:href="#K"/></g><path fill="none" stroke="#fff" stroke-width="1.1" d="M402.5 34.5l12-5v2h8v6h-8v2zM507 39.5l-8-6h3v-3h10v3h3zM601.5 30.5l-8 6h3v3h10v-3h3zM708 34.5l-12-5v2h-8v6h8v2zM64.5 55.5h11v11h-11zM159 55.5h11v11h-11zM253.5 55.5h11v11h-11zM348 55.5h11v11h-11zM442.5 55.5h11v11h-11zM537 55.5h11v11h-11zM631.5 55.5h11v11h-11z"/></svg>